<?xml version="1.0" standalone="no"?>
<!DOCTYPE svg PUBLIC "-//W3C//DTD SVG 20010904//EN"
 "http://www.w3.org/TR/2001/REC-SVG-20010904/DTD/svg10.dtd">
<svg version="1.0" xmlns="http://www.w3.org/2000/svg"
 width="600.000000pt" height="620.000000pt" viewBox="0 0 600.000000 620.000000"
 preserveAspectRatio="xMidYMid meet">

<g transform="translate(0.000000,620.000000) scale(0.100000,-0.100000)"
fill="#000000" stroke="none">
<path d="M2305 5049 c-246 -25 -487 -100 -683 -212 -86 -49 -107 -80 -118
-178 -7 -70 2 -75 17 -8 16 70 44 98 143 144 262 122 526 173 841 162 235 -8
443 -52 588 -123 l52 -25 -35 30 c-48 42 -180 106 -269 130 -41 11 -76 23 -79
26 -3 3 21 5 54 6 48 0 54 2 35 10 -84 33 -387 55 -546 38z"/>
<path d="M2623 4855 l-28 -25 32 6 c25 5 37 1 57 -19 36 -36 37 -107 1 -142
-26 -27 -15 -32 32 -14 49 18 73 48 73 91 0 105 -97 165 -167 103z"/>
<path d="M1982 4804 l-37 -36 72 6 c39 3 82 10 95 15 22 9 21 10 -22 30 -60
27 -64 27 -108 -15z"/>
<path d="M3122 4734 c204 -182 422 -298 643 -343 55 -11 197 -27 315 -36 118
-8 265 -23 325 -32 96 -15 105 -18 70 -23 -44 -7 -44 -7 55 -43 129 -48 275
-133 330 -191 l24 -27 -67 32 c-38 17 -70 30 -72 27 -2 -2 22 -24 53 -49 147
-118 289 -354 337 -562 22 -95 37 -246 29 -300 l-6 -49 -37 36 c-20 20 -39 36
-41 36 -3 0 -6 -55 -6 -123 -2 -206 -43 -363 -150 -582 -287 -591 -820 -1004
-1564 -1215 -171 -48 -388 -93 -570 -117 -190 -25 -736 -25 -925 0 -183 25
-357 62 -482 103 -542 180 -644 524 -218 736 316 158 728 162 1318 12 320 -81
768 -240 1057 -376 58 -27 98 -42 90 -34 -32 32 -294 182 -465 266 -528 260
-993 380 -1477 380 -281 0 -491 -35 -687 -116 -182 -75 -304 -172 -360 -286
-32 -64 -33 -72 -29 -150 4 -67 10 -94 36 -144 38 -75 115 -161 198 -220 171
-122 499 -229 864 -281 195 -27 730 -25 980 6 655 78 1131 222 1529 461 423
254 709 563 910 981 103 214 142 370 145 571 0 65 4 118 7 118 3 0 16 -33 28
-72 37 -119 37 -119 47 -63 5 28 8 118 8 200 -1 127 -5 165 -27 248 -64 240
-205 465 -382 605 l-40 32 53 -20 c29 -11 75 -31 102 -45 66 -33 70 -32 29 11
-76 81 -248 173 -421 225 -38 12 -67 23 -65 25 2 3 51 -5 108 -16 131 -25 141
-25 109 0 -136 108 -290 143 -715 159 -273 11 -389 28 -555 82 -119 38 -278
106 -396 170 -50 27 -94 49 -98 49 -4 0 21 -25 56 -56z"/>
<path d="M1573 4680 c-11 -30 -11 -31 15 -28 21 2 27 8 27 28 0 37 -28 37 -42
0z"/>
<path d="M1526 4440 c15 -76 80 -170 119 -170 6 0 17 -11 23 -24 18 -40 73
-96 94 -96 18 0 19 5 13 40 -5 27 -3 40 5 40 22 0 50 -21 63 -47 l14 -26 19
27 c35 54 -8 90 -156 130 -73 20 -144 68 -176 119 l-25 42 7 -35z"/>
<path d="M1647 4140 c-7 -33 -36 -41 -57 -15 -7 9 -15 13 -18 11 -2 -3 12 -24
32 -47 44 -52 47 -76 9 -81 -20 -2 -33 -13 -44 -35 -9 -18 -21 -38 -27 -45
-12 -15 -14 -126 -2 -133 4 -3 6 -14 3 -24 -6 -24 29 -61 58 -61 43 0 101 -24
109 -45 4 -11 11 -78 15 -148 4 -70 11 -127 15 -127 5 0 11 26 15 58 3 31 10
66 14 76 6 17 9 15 20 -12 8 -18 20 -32 27 -32 18 0 19 -3 -16 73 -31 68 -37
97 -21 97 17 0 154 -97 271 -191 286 -230 353 -272 480 -305 116 -30 250 -2
352 72 94 70 168 224 182 379 l5 70 -23 -70 c-51 -155 -125 -253 -231 -308
-50 -25 -75 -31 -147 -35 -153 -8 -215 18 -508 213 -221 148 -386 235 -495
263 -53 13 -71 22 -73 37 -3 10 -10 25 -18 32 -10 10 -11 20 -4 32 5 10 6 28
3 41 -4 16 0 27 11 36 10 7 16 17 13 21 -3 5 -2 15 3 23 7 11 19 12 72 2 72
-13 101 -38 118 -101 8 -29 18 -43 43 -55 55 -26 147 -46 210 -46 128 0 187
42 187 133 0 29 -5 59 -10 67 -7 11 -10 4 -10 -26 0 -86 -57 -120 -188 -111
-125 8 -162 23 -189 79 -27 56 -75 98 -113 98 -25 0 -30 5 -36 36 -3 19 -4 51
-1 71 10 57 -25 88 -36 33z"/>
<path d="M1812 4113 c-13 -24 -16 -62 -6 -88 9 -24 55 -44 141 -61 82 -17 148
-45 156 -66 3 -8 6 -6 6 5 1 28 -44 63 -127 96 -111 45 -140 65 -150 103 -8
32 -9 32 -20 11z"/>
<path d="M3775 3304 c-93 -19 -164 -39 -217 -61 -74 -30 -233 -108 -251 -123
-6 -6 -41 -29 -76 -53 -132 -87 -270 -235 -332 -359 -113 -225 16 -572 291
-782 85 -65 86 -64 18 23 -215 272 -271 527 -162 743 86 171 294 368 529 500
100 57 167 87 225 104 42 11 23 17 -25 8z"/>
<path d="M2536 3088 c55 -67 72 -129 99 -373 28 -246 76 -392 165 -500 45 -54
119 -119 172 -149 32 -19 31 -18 -15 37 -126 148 -177 280 -233 602 -43 245
-85 345 -167 395 -46 29 -53 25 -21 -12z"/>
<path d="M2292 100 c0 -40 2 -47 7 -26 9 42 29 44 34 4 l5 -33 -2 35 c-1 24
-6 35 -16 35 -8 0 -18 9 -22 20 -3 11 -6 -4 -6 -35z"/>
<path d="M2893 100 c0 -30 1 -47 4 -37 5 18 5 18 25 0 21 -18 21 -18 9 5 -10
19 -10 27 1 40 10 13 8 13 -9 -1 -21 -19 -22 -19 -26 15 -2 20 -4 11 -4 -22z"/>
<path d="M3329 133 c-12 -15 -12 -16 4 -10 14 5 17 1 17 -27 0 -19 -6 -37 -12
-39 -7 -3 1 -5 17 -5 17 0 24 2 18 5 -8 3 -13 23 -13 49 0 47 -9 55 -31 27z"/>
<path d="M3407 143 c-13 -12 -7 -42 10 -52 15 -8 15 -11 3 -27 -10 -11 -10
-15 -2 -10 6 4 19 21 28 37 12 24 13 34 3 45 -12 15 -31 18 -42 7z m38 -23 c0
-8 -8 -16 -17 -18 -13 -2 -18 3 -18 18 0 15 5 20 18 18 9 -2 17 -10 17 -18z"/>
<path d="M3487 143 c-4 -3 -7 -11 -7 -17 0 -6 5 -5 12 2 16 16 28 15 28 -3 0
-8 -5 -15 -12 -15 -6 0 -4 -6 7 -13 10 -8 15 -19 11 -25 -10 -16 -33 -15 -39
1 -4 9 -6 9 -6 -1 -1 -20 29 -26 46 -9 13 13 14 19 4 31 -8 10 -9 16 -1 21 8
5 8 11 -1 21 -12 15 -31 18 -42 7z"/>
<path d="M3570 133 c0 -11 3 -14 8 -7 4 6 14 14 22 17 10 4 8 6 -7 6 -16 1
-23 -5 -23 -16z"/>
<path d="M3649 133 c-12 -15 -12 -16 4 -10 14 5 17 1 17 -27 0 -19 -6 -37 -12
-39 -7 -3 1 -5 17 -5 17 0 24 2 18 5 -8 3 -13 23 -13 49 0 47 -9 55 -31 27z"/>
<path d="M3732 117 l-22 -32 25 -3 c15 -2 25 -10 26 -20 0 -15 1 -15 8 1 8 21
2 87 -8 87 -3 0 -16 -15 -29 -33z m28 -7 c0 -11 -7 -20 -15 -20 -13 0 -14 4
-5 20 6 11 13 20 15 20 3 0 5 -9 5 -20z"/>
<path d="M3807 143 c-13 -12 -7 -42 10 -52 15 -8 15 -11 3 -27 -10 -11 -10
-15 -2 -10 6 4 19 21 28 37 12 24 13 34 3 45 -12 15 -31 18 -42 7z m38 -23 c0
-8 -8 -16 -17 -18 -13 -2 -18 3 -18 18 0 15 5 20 18 18 9 -2 17 -10 17 -18z"/>
<path d="M3890 141 c0 -5 -3 -16 -6 -25 -4 -12 0 -16 15 -16 30 0 28 -37 -1
-43 -22 -4 -22 -4 -2 -6 30 -2 50 24 34 44 -7 8 -19 15 -26 15 -18 0 -6 28 14
33 12 3 10 5 -5 6 -13 0 -23 -3 -23 -8z"/>
<path d="M3976 126 c-30 -47 -9 -97 29 -66 21 18 19 41 -5 47 -16 4 -18 8 -9
19 7 8 10 17 7 20 -3 2 -13 -7 -22 -20z m29 -47 c0 -7 -8 -15 -17 -17 -18 -3
-25 18 -11 32 10 10 28 1 28 -15z"/>
<path d="M4058 143 c25 -5 27 -18 7 -53 -8 -14 -14 -29 -14 -35 0 -11 48 75
49 88 0 4 -15 6 -32 6 -24 -1 -27 -3 -10 -6z"/>
<path d="M2434 123 c-15 -5 -3 -65 15 -71 10 -3 11 0 3 14 -15 28 -15 36 -2
44 14 9 1 19 -16 13z"/>
<path d="M2484 123 c-16 -5 -2 -65 16 -71 12 -4 13 -2 3 9 -16 17 -17 46 -1
51 7 3 8 7 3 10 -6 3 -15 3 -21 1z"/>
<path d="M2707 124 c-8 -9 8 -67 21 -72 10 -3 10 2 0 23 -9 21 -9 28 1 34 10
7 9 9 -2 14 -8 3 -17 4 -20 1z"/>
<path d="M1903 85 c10 -35 27 -48 27 -20 0 8 -4 15 -10 15 -5 0 -10 9 -10 20
0 11 -4 20 -9 20 -5 0 -4 -15 2 -35z"/>
<path d="M1936 111 c-5 -7 -4 -16 1 -20 5 -3 13 -15 17 -26 8 -18 10 -16 24
15 l15 35 10 -32 c10 -34 27 -45 27 -18 0 8 -4 15 -10 15 -5 0 -10 9 -10 21 0
29 -33 21 -40 -11 l-6 -25 -10 30 c-7 21 -13 25 -18 16z"/>
<path d="M2036 111 c-5 -7 -4 -16 1 -20 5 -3 13 -15 17 -26 8 -18 10 -16 24
15 l15 35 10 -32 c12 -39 22 -42 31 -10 l7 22 10 -25 c8 -20 12 -22 18 -10 17
30 24 63 12 56 -6 -4 -11 -17 -12 -29 -1 -19 -2 -18 -14 8 -14 29 -15 29 -21
8 -8 -29 -24 -30 -24 -2 0 29 -33 21 -40 -11 l-6 -25 -10 30 c-7 21 -13 25
-18 16z"/>
<path d="M2234 108 c-4 -6 0 -16 9 -23 22 -16 21 -22 0 -28 -16 -4 -16 -5 -1
-6 26 -2 33 20 12 36 -16 12 -17 15 -4 23 9 6 10 10 3 10 -6 0 -15 -5 -19 -12z"/>
<path d="M2364 91 c0 -21 7 -36 16 -38 10 -3 11 -2 3 4 -6 4 -13 22 -16 38 -4
27 -5 27 -3 -4z"/>
<path d="M2403 85 c0 -22 2 -30 4 -17 2 12 2 30 0 40 -3 9 -5 -1 -4 -23z"/>
<path d="M2534 106 c-9 -23 0 -51 16 -52 9 0 10 1 3 3 -21 7 -15 23 8 23 14 0
19 5 17 17 -4 23 -36 29 -44 9z m36 -6 c0 -5 -7 -10 -15 -10 -8 0 -15 5 -15
10 0 6 7 10 15 10 8 0 15 -4 15 -10z"/>
<path d="M2601 81 c1 -28 3 -30 6 -11 3 14 9 30 14 36 5 7 3 11 -6 11 -11 0
-15 -11 -14 -36z"/>
<path d="M2654 108 c-4 -6 0 -16 9 -23 22 -16 21 -22 0 -28 -16 -4 -16 -5 -1
-6 26 -2 33 20 12 36 -16 12 -17 15 -4 23 9 6 10 10 3 10 -6 0 -15 -5 -19 -12z"/>
<path d="M2767 114 c-13 -13 -7 -55 9 -61 24 -9 51 23 38 45 -12 19 -36 27
-47 16z m37 -13 c9 -14 -4 -41 -20 -41 -8 0 -14 10 -14 25 0 25 23 35 34 16z"/>
<path d="M2834 106 c-9 -23 0 -51 16 -52 9 0 10 1 3 3 -20 7 -16 51 5 56 16 4
16 5 -1 6 -10 0 -20 -5 -23 -13z"/>
<path d="M2994 106 c-9 -23 0 -51 16 -52 9 0 10 1 3 3 -20 7 -16 51 5 56 16 4
16 5 -1 6 -10 0 -20 -5 -23 -13z"/>
<path d="M3057 114 c-13 -13 -7 -55 9 -61 24 -9 51 23 38 45 -12 19 -36 27
-47 16z m38 -29 c0 -11 -8 -21 -17 -23 -14 -3 -18 3 -18 23 0 20 4 26 18 23 9
-2 17 -12 17 -23z"/>
<path d="M3123 85 c0 -22 2 -30 4 -17 2 12 2 30 0 40 -3 9 -5 -1 -4 -23z"/>
<path d="M3147 112 c6 -4 13 -21 16 -37 l4 -30 2 33 c1 41 23 39 33 -4 6 -27
6 -27 5 6 -2 32 -4 35 -36 37 -19 1 -30 -2 -24 -5z"/>
<path d="M3578 103 c26 -5 30 -39 5 -46 -15 -4 -15 -5 -2 -6 9 0 22 6 29 14
16 20 -4 46 -34 44 -20 -2 -20 -2 2 -6z"/>
</g>
</svg>
