<?xml version="1.0" encoding="UTF-8" standalone="no"?>
<!-- Generator: Gravit.io -->
<svg xmlns="http://www.w3.org/2000/svg" xmlns:xlink="http://www.w3.org/1999/xlink" style="isolation:isolate" viewBox="0 0 600 620" width="600pt" height="620pt"><defs><clipPath id="_clipPath_VryKsyEiLL0tP43JyKvfJ2f4kEYhQP8p"><rect width="600" height="620"/></clipPath></defs><g clip-path="url(#_clipPath_VryKsyEiLL0tP43JyKvfJ2f4kEYhQP8p)"><path d=" M 230.5 115.1 C 205.9 117.6 181.8 125.1 162.2 136.3 C 153.6 141.2 151.5 144.3 150.4 154.1 C 149.7 161.1 150.6 161.6 152.1 154.9 C 153.7 147.9 156.5 145.1 166.4 140.5 C 192.6 128.3 219 123.2 250.5 124.3 C 274 125.1 294.8 129.5 309.3 136.6 L 314.5 139.1 L 311 136.1 C 306.2 131.9 293 125.5 284.1 123.1 C 280 122 276.5 120.8 276.2 120.5 C 275.9 120.2 278.3 120 281.6 119.9 C 286.4 119.9 287 119.7 285.1 118.9 C 276.7 115.6 246.4 113.4 230.5 115.1 Z " fill="rgb(0,0,0)"/><path d=" M 262.3 134.5 L 259.5 137 L 262.7 136.4 C 265.2 135.9 266.4 136.3 268.4 138.3 C 272 141.9 272.1 149 268.5 152.5 C 265.9 155.2 267 155.7 271.7 153.9 C 276.6 152.1 279 149.1 279 144.8 C 279 134.3 269.3 128.3 262.3 134.5 Z " fill="rgb(0,0,0)"/><path d=" M 198.2 139.6 L 194.5 143.2 L 201.7 142.6 C 205.6 142.3 209.9 141.6 211.2 141.1 C 213.4 140.2 213.3 140.1 209 138.1 C 203 135.4 202.6 135.4 198.2 139.6 Z " fill="rgb(0,0,0)"/><path d=" M 312.2 146.6 C 332.6 164.8 354.4 176.4 376.5 180.9 C 382 182 396.2 183.6 408 184.5 C 419.8 185.3 434.5 186.8 440.5 187.7 C 450.1 189.2 451 189.5 447.5 190 C 443.1 190.7 443.1 190.7 453 194.3 C 465.9 199.1 480.5 207.6 486 213.4 L 488.4 216.1 L 481.7 212.9 C 477.9 211.2 474.7 209.9 474.5 210.2 C 474.3 210.4 476.7 212.6 479.8 215.1 C 494.5 226.9 508.7 250.5 513.5 271.3 C 515.7 280.8 517.2 295.9 516.4 301.3 L 515.8 306.2 L 512.1 302.6 C 510.1 300.6 508.2 299 508 299 C 507.7 299 507.4 304.5 507.4 311.3 C 507.2 331.9 503.1 347.6 492.4 369.5 C 463.7 428.6 410.4 469.9 336 491 C 318.9 495.8 297.2 500.3 279 502.7 C 260 505.2 205.4 505.2 186.5 502.7 C 168.2 500.2 150.8 496.5 138.3 492.4 C 84.1 474.4 73.9 440 116.5 418.8 C 148.1 403 189.3 402.6 248.3 417.6 C 280.3 425.7 325.1 441.6 354 455.2 C 359.8 457.9 363.8 459.4 363 458.6 C 359.8 455.4 333.6 440.4 316.5 432 C 263.7 406 217.2 394 168.8 394 C 140.7 394 119.7 397.5 100.1 405.6 C 81.9 413.1 69.7 422.8 64.1 434.2 C 60.9 440.6 60.8 441.4 61.2 449.2 C 61.6 455.9 62.2 458.6 64.8 463.6 C 68.6 471.1 76.3 479.7 84.6 485.6 C 101.7 497.8 134.5 508.5 171 513.7 C 190.5 516.4 244 516.2 269 513.1 C 334.5 505.3 382.1 490.9 421.9 467 C 464.2 441.6 492.8 410.7 512.9 368.9 C 523.2 347.5 527.1 331.9 527.4 311.8 C 527.4 305.3 527.8 300 528.1 300 C 528.4 300 529.7 303.3 530.9 307.2 C 534.6 319.1 534.6 319.1 535.6 313.5 C 536.1 310.7 536.4 301.7 536.4 293.5 C 536.3 280.8 535.9 277 533.7 268.7 C 527.3 244.7 513.2 222.2 495.5 208.2 L 491.5 205 L 496.8 207 C 499.7 208.1 504.3 210.1 507 211.5 C 513.6 214.8 514 214.7 509.9 210.4 C 502.3 202.3 485.1 193.1 467.8 187.9 C 464 186.7 461.1 185.6 461.3 185.4 C 461.5 185.1 466.4 185.9 472.1 187 C 485.2 189.5 486.2 189.5 483 187 C 469.4 176.2 454 172.7 411.5 171.1 C 384.2 170 372.6 168.3 356 162.9 C 344.1 159.1 328.2 152.3 316.4 145.9 C 311.4 143.2 307 141 306.6 141 C 306.2 141 308.7 143.5 312.2 146.6 Z " fill="rgb(0,0,0)"/><path d=" M 377.5 289.6 C 368.2 291.5 361.1 293.5 355.8 295.7 C 348.4 298.7 332.5 306.5 330.7 308 C 330.1 308.6 326.6 310.9 323.1 313.3 C 309.9 322 296.1 336.8 289.9 349.2 C 278.6 371.7 291.5 406.4 319 427.4 C 327.5 433.9 327.6 433.8 320.8 425.1 C 299.3 397.9 293.7 372.4 304.6 350.8 C 313.2 333.7 334 314 357.5 300.8 C 367.5 295.1 374.2 292.1 380 290.4 C 384.2 289.3 382.3 288.7 377.5 289.6 Z " fill="rgb(0,0,0)"/><path d=" M 166.4 187.7 C 171.9 194.4 212.727 217.252 215.427 241.652 C 218.227 266.252 223.027 280.852 231.927 291.652 C 236.427 297.052 243.827 303.552 249.127 306.552 C 252.327 308.452 252.227 308.352 247.627 302.852 C 235.027 288.052 229.927 274.852 224.327 242.652 C 220.027 218.152 176.7 191.5 168.5 186.5 C 163.9 183.6 163.2 184 166.4 187.7 Z " fill="rgb(0,0,0)"/></g></svg>